<svg width="143" height="95" viewBox="0 0 143 95" fill="none" xmlns="http://www.w3.org/2000/svg">
    <path d="M30.868 28.498L25.352 22.9249C23.0583 25.092 20.889 26.4543 17.7277 26.4543C12.5826 26.4543 9.29739 22.3678 9.29739 17.2899V17.1666C9.29739 12.2744 12.6445 8.12552 17.3559 8.12552C20.7031 8.12552 22.8099 9.55022 24.9177 11.7792L30.6821 5.58705C27.5833 2.1191 23.6784 0.0144271 17.4174 0.0144271C7.25201 0.0144271 0 7.81601 0 17.2899V17.4137C0 26.8876 7.31445 34.5659 17.2935 34.5659C23.9258 34.5659 27.6448 32.0274 30.868 28.498ZM0 61.3685H8.12717C10.1401 61.3685 11.7865 63.0132 11.7865 65.0246V73.1433H3.65985C1.64641 73.1433 0 71.4986 0 69.4873V61.3685ZM67.9975 39.7056H58.6381L53.1836 59.8919L46.8611 39.5818H38.7406L32.4801 59.83L27.15 39.7056H17.6038L27.8316 73.1433H36.2615L42.7699 52.7708L49.1548 73.1433H57.6462L67.9975 39.7056ZM104.135 72.8952V51.4094C104.135 43.7931 99.9813 39.0871 92.8532 39.0871C88.0804 39.0871 85.2914 41.6256 83.1221 44.4116V21.5626C83.1221 13.6367 86.965 9.85973 93.225 9.85973H93.7212V0.0144271C88.1428 -0.233658 85.0431 2.7386 83.1221 7.32126V0.632972H73.6998V72.8952H83.1221V54.3812C83.1221 49.9233 85.4148 47.632 89.0103 47.632C92.6058 47.632 94.7127 49.9233 94.7127 54.3812V72.8952H104.135ZM143 39.7056H133.206L125.953 62.3071L118.392 39.7056H108.412L121.428 73.019C120.623 74.6908 119.755 75.1865 118.144 75.1865C116.904 75.1865 115.354 74.6294 114.115 73.8861L110.954 80.6973C113.371 82.121 115.912 82.9886 119.322 82.9886C124.962 82.9886 127.689 80.4492 130.231 73.7004L143 39.7056ZM65.5803 33.8225V14.5657C65.5803 5.58706 61.0548 0.261557 50.7655 0.261557C45.1251 0.261557 41.5296 1.31437 37.8731 2.9243L40.2283 10.1073C43.2656 8.99309 45.8067 8.31122 49.4022 8.31122C54.1126 8.31122 56.5298 10.4792 56.5298 14.38V14.9371C54.1746 14.1319 51.7574 13.5748 48.4103 13.5748C40.5376 13.5748 35.0217 16.9185 35.0217 24.1629V24.2868C35.0217 30.8503 40.1658 34.442 46.4269 34.442C51.0133 34.442 54.1746 32.7702 56.4683 30.2313V33.8225H65.5803ZM56.6542 22.1197C56.6542 25.5257 53.6789 27.9404 49.2778 27.9404C46.241 27.9404 44.1331 26.4543 44.1331 23.9153V23.7915C44.1331 20.8193 46.6128 19.2098 50.6415 19.2098C52.9353 19.2098 55.0421 19.705 56.6542 20.4479V22.1197ZM129.673 18.1565V18.0332C129.673 8.62121 124.59 0.0144271 113.495 0.0144271C103.825 0.0144271 97.0684 7.81601 97.0684 17.2899V17.4137C97.0684 27.569 104.444 34.5659 114.424 34.5659C120.437 34.5659 124.9 32.2131 127.999 28.3732L122.606 23.6058C120.003 26.021 117.71 27.0119 114.548 27.0119C110.334 27.0119 107.358 24.7824 106.428 20.5102H129.549C129.61 19.6427 129.673 19.0855 129.673 18.1565ZM120.498 14.6272H106.304C107.048 10.3545 109.589 7.56839 113.495 7.56839C117.461 7.56839 119.941 10.4169 120.498 14.6272Z" fill="#FF9900"/>
    <path d="M60.5571 91.1263V83.4267C60.5571 80.2306 58.5694 78.5845 55.3944 78.5845C53.6979 78.5845 52.3647 79.0202 51.0076 79.6502L51.4438 80.6906C52.583 80.1101 53.8195 79.6982 55.3219 79.6982C57.8668 79.6982 59.3936 80.982 59.3936 83.4757V84.0081C58.2062 83.6928 57.0189 83.4757 55.2976 83.4757C52.0982 83.4757 49.8927 84.928 49.8927 87.4946V87.5427C49.8927 90.1097 52.3647 91.4163 54.6674 91.4163C57.0188 91.4163 58.5452 90.2545 59.3936 89.0683V91.1263H60.5571ZM59.4179 86.5018C59.4179 88.7536 57.261 90.3026 54.7404 90.3026C52.8495 90.3026 51.1535 89.2621 51.1535 87.4703V87.4218C51.1535 85.7028 52.6073 84.5404 55.2252 84.5404C56.9941 84.5404 58.3764 84.8309 59.4179 85.0975V86.5018ZM77.1113 84.9523V84.9037C77.1113 80.8844 74.0811 78.4878 71.1001 78.4878C68.6529 78.4878 67.077 79.9163 66.0107 81.5382V78.7783H64.8228V95H66.0107V88.4626C67.0289 90.0126 68.6285 91.4163 71.1001 91.4163C74.0811 91.4163 77.1113 88.9717 77.1113 84.9523ZM75.8267 85.0004C75.8267 88.3179 73.6698 90.2788 70.9795 90.2788C68.4102 90.2788 65.9382 88.1484 65.9382 84.9766V84.928C65.9382 81.7805 68.4102 79.6259 70.9795 79.6259C73.5725 79.6259 75.8267 81.7082 75.8267 84.9523V85.0004ZM93.1077 84.9523V84.9037C93.1077 80.8844 90.0776 78.4878 87.0965 78.4878C84.6493 78.4878 83.0734 79.9163 82.0071 81.5382V78.7783H80.8193V95H82.0071V88.4626C83.0253 90.0126 84.625 91.4163 87.0965 91.4163C90.0776 91.4163 93.1077 88.9717 93.1077 84.9523ZM91.8231 85.0004C91.8231 88.3179 89.6662 90.2788 86.9759 90.2788C84.4067 90.2788 81.9347 88.1484 81.9347 84.9766V84.928C81.9347 81.7805 84.4067 79.6259 86.9759 79.6259C89.569 79.6259 91.8231 81.7082 91.8231 84.9523V85.0004Z" fill="#FF9900"/>
</svg>
