<svg width="48" height="48" viewBox="0 0 48 48" fill="none" xmlns="http://www.w3.org/2000/svg">
    <path d="M25.0996 43.5793H3.38598C2.62052 43.5793 2 42.9589 2 42.1933V3.38598C2 2.62052 2.62052 2 3.38598 2H42.1933C42.9589 2 43.5793 2.62052 43.5793 3.38598V25.0996" stroke="#BABABA" stroke-width="3.46494" stroke-linecap="round" stroke-linejoin="round"/>
    <path d="M2 32.0295L18.1697 25.0996L30.8745 30.8745" stroke="#BABABA" stroke-width="3.46494" stroke-linecap="round" stroke-linejoin="round"/>
    <path d="M32.0295 18.1697C29.4779 18.1697 27.4096 16.1013 27.4096 13.5498C27.4096 10.9983 29.4779 8.92987 32.0295 8.92987C34.5811 8.92987 36.6495 10.9983 36.6495 13.5498C36.6495 16.1013 34.5811 18.1697 32.0295 18.1697Z" stroke="#BABABA" stroke-width="3.46494" stroke-linecap="round" stroke-linejoin="round"/>
    <path d="M32.0295 38.9594H38.9594M45.8893 38.9594H38.9594M38.9594 38.9594V32.0295M38.9594 38.9594V45.8893" stroke="#BABABA" stroke-width="3.46494" stroke-linecap="round" stroke-linejoin="round"/>
</svg>
